<mxfile host="app.diagrams.net" modified="2020-11-02T19:22:40.684Z" agent="5.0 (Windows NT 10.0; Win64; x64) AppleWebKit/537.36 (KHTML, like Gecko) Chrome/86.0.4240.111 Safari/537.36 OPR/72.0.3815.186" etag="q4qVn7eysL1KN24S72Li" version="13.8.8" type="github">
  <diagram id="y5UxwZJ2suRmW5uKMo80" name="Page-1">
    <mxGraphModel dx="737" dy="319" grid="1" gridSize="10" guides="1" tooltips="1" connect="1" arrows="1" fold="1" page="1" pageScale="1" pageWidth="827" pageHeight="1169" math="0" shadow="0">
      <root>
        <mxCell id="0" />
        <mxCell id="1" parent="0" />
        <mxCell id="BgQQ-q5N8sr3ndImAXt2-1" value="Inicio" style="ellipse;whiteSpace=wrap;html=1;aspect=fixed;" vertex="1" parent="1">
          <mxGeometry x="80" width="80" height="80" as="geometry" />
        </mxCell>
        <mxCell id="BgQQ-q5N8sr3ndImAXt2-2" value="" style="endArrow=classic;html=1;exitX=0.5;exitY=1;exitDx=0;exitDy=0;entryX=0.5;entryY=0;entryDx=0;entryDy=0;" edge="1" parent="1" source="BgQQ-q5N8sr3ndImAXt2-1" target="BgQQ-q5N8sr3ndImAXt2-5">
          <mxGeometry width="50" height="50" relative="1" as="geometry">
            <mxPoint x="300" y="230" as="sourcePoint" />
            <mxPoint x="120" y="110" as="targetPoint" />
          </mxGeometry>
        </mxCell>
        <mxCell id="BgQQ-q5N8sr3ndImAXt2-5" value="TotalD=0.0&lt;br&gt;Total=0&lt;br&gt;Nf=0&lt;br&gt;Costo=0" style="rounded=0;whiteSpace=wrap;html=1;" vertex="1" parent="1">
          <mxGeometry x="60" y="110" width="120" height="60" as="geometry" />
        </mxCell>
        <mxCell id="BgQQ-q5N8sr3ndImAXt2-6" value="" style="endArrow=classic;html=1;exitX=0.5;exitY=1;exitDx=0;exitDy=0;" edge="1" parent="1" source="BgQQ-q5N8sr3ndImAXt2-5" target="BgQQ-q5N8sr3ndImAXt2-7">
          <mxGeometry width="50" height="50" relative="1" as="geometry">
            <mxPoint x="300" y="210" as="sourcePoint" />
            <mxPoint x="350" y="160" as="targetPoint" />
          </mxGeometry>
        </mxCell>
        <mxCell id="BgQQ-q5N8sr3ndImAXt2-8" style="edgeStyle=orthogonalEdgeStyle;rounded=0;orthogonalLoop=1;jettySize=auto;html=1;entryX=0.5;entryY=0;entryDx=0;entryDy=0;" edge="1" parent="1" source="BgQQ-q5N8sr3ndImAXt2-7" target="BgQQ-q5N8sr3ndImAXt2-9">
          <mxGeometry relative="1" as="geometry">
            <mxPoint x="120" y="310" as="targetPoint" />
          </mxGeometry>
        </mxCell>
        <mxCell id="BgQQ-q5N8sr3ndImAXt2-7" value="&quot;Programa que determina el total a pagar por la compra de folder&quot;" style="ellipse;whiteSpace=wrap;html=1;" vertex="1" parent="1">
          <mxGeometry x="40" y="200" width="160" height="80" as="geometry" />
        </mxCell>
        <mxCell id="BgQQ-q5N8sr3ndImAXt2-11" style="edgeStyle=orthogonalEdgeStyle;rounded=0;orthogonalLoop=1;jettySize=auto;html=1;" edge="1" parent="1" source="BgQQ-q5N8sr3ndImAXt2-9" target="BgQQ-q5N8sr3ndImAXt2-10">
          <mxGeometry relative="1" as="geometry" />
        </mxCell>
        <mxCell id="BgQQ-q5N8sr3ndImAXt2-9" value="&quot;Ingresa la cantidad de forder:&quot;" style="ellipse;whiteSpace=wrap;html=1;" vertex="1" parent="1">
          <mxGeometry x="25" y="310" width="190" height="80" as="geometry" />
        </mxCell>
        <mxCell id="BgQQ-q5N8sr3ndImAXt2-13" style="edgeStyle=orthogonalEdgeStyle;rounded=0;orthogonalLoop=1;jettySize=auto;html=1;entryX=0.5;entryY=0;entryDx=0;entryDy=0;" edge="1" parent="1" source="BgQQ-q5N8sr3ndImAXt2-10" target="BgQQ-q5N8sr3ndImAXt2-12">
          <mxGeometry relative="1" as="geometry" />
        </mxCell>
        <mxCell id="BgQQ-q5N8sr3ndImAXt2-10" value="Nf" style="shape=parallelogram;perimeter=parallelogramPerimeter;whiteSpace=wrap;html=1;fixedSize=1;" vertex="1" parent="1">
          <mxGeometry x="60" y="420" width="120" height="30" as="geometry" />
        </mxCell>
        <mxCell id="BgQQ-q5N8sr3ndImAXt2-15" style="edgeStyle=orthogonalEdgeStyle;rounded=0;orthogonalLoop=1;jettySize=auto;html=1;" edge="1" parent="1" source="BgQQ-q5N8sr3ndImAXt2-12" target="BgQQ-q5N8sr3ndImAXt2-14">
          <mxGeometry relative="1" as="geometry" />
        </mxCell>
        <mxCell id="BgQQ-q5N8sr3ndImAXt2-12" value="&quot;Ingresa el precio de cada folder:&quot;" style="ellipse;whiteSpace=wrap;html=1;" vertex="1" parent="1">
          <mxGeometry x="25" y="480" width="190" height="80" as="geometry" />
        </mxCell>
        <mxCell id="BgQQ-q5N8sr3ndImAXt2-14" value="Costo" style="shape=parallelogram;perimeter=parallelogramPerimeter;whiteSpace=wrap;html=1;fixedSize=1;" vertex="1" parent="1">
          <mxGeometry x="60" y="590" width="120" height="30" as="geometry" />
        </mxCell>
      </root>
    </mxGraphModel>
  </diagram>
</mxfile>
